inDegrees=yes
name=ik_OwnShooting_orientations.mot
DataType=double
version=3
OpenSimVersion=4.3-2021-08-27-4bc7ad9
endheader
time	pelvis_tilt	pelvis_list	pelvis_rotation	pelvis_tx	pelvis_ty	pelvis_tz	hip_flexion_r	hip_adduction_r	hip_rotation_r	knee_angle_r	knee_angle_r_beta	ankle_angle_r	subtalar_angle_r	mtp_angle_r	hip_flexion_l	hip_adduction_l	hip_rotation_l	knee_angle_l	knee_angle_l_beta	ankle_angle_l	subtalar_angle_l	mtp_angle_l	lumbar_extension	lumbar_bending	lumbar_rotation	arm_flex_r	arm_add_r	arm_rot_r	elbow_flex_r	pro_sup_r	wrist_flex_r	wrist_dev_r	arm_flex_l	arm_add_l	arm_rot_l	elbow_flex_l	pro_sup_l	wrist_flex_l	wrist_dev_l
8.75	-1.413908576958029	0.6067728798084639	-142.2185887229684	0	0.9399999999999999	0	42.42072964009743	-10.00008579725518	0	55.13523226866957	0.9622913369401068	-5.000004126590264	0	0	42.42072964009743	-10.00008579725518	0	55.13523226866957	0.9622913369401068	-5.000004126590264	0	0	43.18960820862498	-53.58041959546817	89.95905148791761	-89.98428513580326	-119.9982019178135	89.99717111806176	149.9984247398922	45.00318565767147	0	0	0	-4.095590256226077	0	73.03033241249292	45.00318565767147	0	0
8.76	-1.306036856216299	0.4601527634762099	-142.3946225053631	0	0.9399999999999999	0	42.42157821125243	-10.00008569870998	0	55.1364948832283	0.9623133737213403	-5.000004120185226	0	0	42.42157821125243	-10.00008569870998	0	55.1364948832283	0.9623133737213403	-5.000004120185226	0	0	43.06982673208533	-53.52103189224877	89.956826088776	-89.98441664077968	-119.9981966869983	89.99715795194608	149.9984297789456	45.00318276400112	0	0	0	-4.097444100197746	0	73.03098016467291	45.00318276400112	0	0
8.77	-1.215464453042921	0.3435327920611116	-142.5163717276877	0	0.9399999999999999	0	42.42235909809857	-10.00008560813641	0	55.13765724938022	0.9623336608378049	-5.000004114300834	0	0	42.42235909809857	-10.00008560813641	0	55.13765724938022	0.9623336608378049	-5.000004114300834	0	0	42.85872435417735	-53.34025987111227	89.95578812475436	-89.98446044885505	-119.9981978766667	89.99714416382292	149.998436754201	45.00318010357878	0	0	0	-4.099150732939759	0	73.03157625089274	45.00318010357878	0	0
8.779999999999999	-1.062736851144193	0.1910984650245884	-142.6976030655422	0	0.9399999999999999	0	42.42321150292018	-10.0000855092887	0	55.13892558783128	0.9623557975198056	-5.00000410788031	0	0	42.42321150292018	-10.0000855092887	0	55.13892558783128	0.9623557975198056	-5.00000410788031	0	0	42.69329329654045	-53.36015630947727	89.95313749475783	-89.98479622526582	-119.9981918960291	89.99713674041695	149.9984371232634	45.00317719974903	0	0	0	-4.101013363971566	0	73.03222693001106	45.00317719974903	0	0
8.789999999999999	-0.9968888888512161	0.1077673409749871	-142.7531058160637	0	0.9399999999999999	0	42.42403658240653	-10.00008541367855	0	55.14015326593303	0.9623772245448358	-5.000004101672114	0	0	42.42403658240653	-10.00008541367855	0	55.14015326593303	0.9623772245448358	-5.000004101672114	0	0	42.35905019724548	-53.11870460624158	89.95196177123202	-89.98489466821556	-119.9981977118622	89.99712242040827	149.9984316668521	45.00317439040816	0	0	0	-4.102816478072575	0	73.03285675072237	45.00317439040816	0	0
8.800000000000001	-0.9236712428164736	-0.01574940451677576	-142.8807994250341	0	0.9399999999999999	0	42.42483733296816	-10.00008532096798	0	55.14134489854928	0.9623980224574635	-5.000004095654306	0	0	42.42483733296816	-10.00008532096798	0	55.14134489854928	0.9623980224574635	-5.000004095654306	0	0	41.98038640824264	-53.00647350439419	89.94955731833369	-89.98526326670562	-119.9981993325554	89.99711492992537	149.9984223050716	45.00317166560064	0	0	0	-4.104566766071397	0	73.03346800038287	45.00317166560064	0	0
8.81	-0.8819590328052452	-0.09844640129766952	-142.9605941246115	0	0.9399999999999999	0	42.42568347512635	-10.00008522302234	0	55.14260357266995	0.9624199904650789	-5.000004089298127	0	0	42.42568347512635	-10.00008522302234	0	55.14260357266995	0.9624199904650789	-5.000004089298127	0	0	41.67204282853339	-53.00291493875541	89.94781180539479	-89.98563856842209	-119.9982001407574	89.99711517690051	149.9984068571883	45.00316878655875	0	0	0	-4.106415943534012	0	73.03411389951876	45.00316878655875	0	0
8.82	-0.6733572941515964	-0.4120743055648639	-143.4391130734107	0	0.9399999999999999	0	42.42647419993774	-10.00008513152198	0	55.1437794286345	0.9624405130231893	-5.000004083361745	0	0	42.42647419993774	-10.00008513152198	0	55.1437794286345	0.9624405130231893	-5.000004083361745	0	0	42.48055550321089	-54.05958599878713	89.93572427292307	-89.98604781466859	-119.9981450610056	89.99713492794432	149.9983647695623	45.00316609655379	0	0	0	-4.108143798389315	0	73.03471749608869	45.00316609655379	0	0
8.83	-0.5065721340675685	-0.6477604052890362	-143.8335426253123	0	0.9399999999999999	0	42.42752720053299	-10.00008500963135	0	55.14534391836016	0.9624678185200158	-5.000004075454797	0	0	42.42752720053299	-10.00008500963135	0	55.14534391836016	0.9624678185200158	-5.000004075454797	0	0	43.63239830053222	-55.02751650089564	89.92275945335446	-89.98590393301653	-119.9980876097892	89.99714306980286	149.9983048077847	45.00316251295703	0	0	0	-4.110443608031292	0	73.03552129942658	45.00316251295703	0	0
8.84	-0.1684732708563644	-1.141697944280452	-144.55305702093	0	0.9399999999999999	0	42.59003091621962	-10.00006947525647	0	55.38955130323861	0.9667300414438299	-5.000003138757921	0	0	42.59003091621962	-10.00006947525647	0	55.38955130323861	0.9667300414438299	-5.000003138757921	0	0	45.89283862873231	-56.36245013803943	89.87519843274127	-89.98476167861918	-119.9979755002237	89.99711873808251	149.9982029539482	45.0026809905975	0	0	0	-4.479968108934186	0	73.15958271521383	45.0026809905975	0	0
8.85	0.3682539555392628	-1.944065357370817	-145.5159240934036	0	0.9399999999999999	0	42.68335535234796	-10.00006247490938	0	55.53198097902622	0.9692159082388716	-5.00000274186419	0	0	42.68335535234796	-10.00006247490938	0	55.53198097902622	0.9692159082388716	-5.00000274186419	0	0	48.77629180975448	-58.5493331134042	89.30096220644177	-89.98329009158641	-119.9977744944497	89.99708433181469	149.9980598602283	45.00245189501836	0	0	0	-4.707140014113373	0	73.23084138973728	45.00245189501836	0	0
8.859999999999999	0.4933488347920834	-2.107667315231358	-145.6853352840211	0	0.9399999999999999	0	42.77148043165704	-10.00005543716829	0	55.66881997572754	0.9716041992764353	-5.000002342616966	0	0	42.77148043165704	-10.00005543716829	0	55.66881997572754	0.9716041992764353	-5.000002342616966	0	0	49.05558204779022	-60.90828071345386	85.78795150918464	-89.98199579385887	-119.9975493770411	89.99707898157151	149.997908576433	45.00222321686456	0	0	0	-4.914985532370146	0	73.29812500094097	45.00222321686456	0	0
8.869999999999999	0.5237776587609212	-2.12116833267232	-145.6881488927585	0	0.9399999999999999	0	42.80940332218956	-10.00005268393254	0	55.72742588612461	0.9726270653739929	-5.000002190160465	0	0	42.80940332218956	-10.00005268393254	0	55.72742588612461	0.9726270653739929	-5.000002190160465	0	0	48.34866475256325	-63.29225963103132	82.60646030097301	-89.98300596106077	-119.9973461953197	89.99713208098561	149.9978055064227	45.00213189613672	0	0	0	-5.007327102703454	0	73.32708061142111	45.00213189613672	0	0
8.880000000000001	0.5062260517597347	-2.12918601902322	-145.6797218631513	0	0.9399999999999999	0	42.84680541121909	-10.00005007617865	0	55.78612120716841	0.9736514919817225	-5.000002047629057	0	0	42.84680541121909	-10.00005007617865	0	55.78612120716841	0.9736514919817225	-5.000002047629057	0	0	46.82425887252268	-65.68176801730912	78.31680328822124	-89.98351987455101	-119.9970822820609	89.99716749596958	149.997682663238	45.00204454452866	0	0	0	-5.099699825016788	0	73.35563916569176	45.00204454452866	0	0
8.890000000000001	0.5003496449577808	-2.126083902641454	-145.6596148391044	0	0.9399999999999999	0	43.00484554352623	-10.00003968114833	0	56.04145698497523	0.9781079420025922	-5.000001497692893	0	0	43.00484554352623	-10.00003968114833	0	56.04145698497523	0.9781079420025922	-5.000001497692893	0	0	42.43448796125388	-69.54116792450606	68.5434812124288	-89.98338715052965	-119.9964188572255	89.99719371392283	149.9974279162843	45.00168890826691	0	0	0	-5.490455227802443	0	73.47631336962063	45.00168890826691	0	0
8.9	0.4954652592041592	-2.141348676411996	-145.6505976080577	0	0.9399999999999999	0	43.07356816334518	-10.00003577594052	0	56.15439337270333	0.9800790538137564	-5.000001299505095	0	0	43.07356816334518	-10.00003577594052	0	56.15439337270333	0.9800790538137564	-5.000001299505095	0	0	36.41247444214603	-72.95529866777092	57.54228472139207	-89.98310303289968	-119.9954557537501	89.99721678131792	149.9971307662967	45.00155078191664	0	0	0	-5.669224640212958	0	73.52879084136117	45.00155078191664	0	0
8.91	0.4896472902620398	-2.135419448860772	-145.6536906016459	0	0.9399999999999999	0	43.14826470818615	-10.00003173764861	0	56.27774737084594	0.9822319872268438	-5.00000109755601	0	0	43.14826470818615	-10.00003173764861	0	56.27774737084594	0.9822319872268438	-5.00000109755601	0	0	28.13015974217167	-75.70942986450437	43.89028903846481	-89.98120622296496	-119.9937650655694	89.99720493798314	149.9967111419566	45.0014062946665	0	0	0	-5.866679681417239	0	73.58583123640112	45.0014062946665	0	0
8.92	0.479034109569677	-2.12341707662194	-145.6435581583373	0	0.9399999999999999	0	43.1580128839966	-10.00003099167562	0	56.29085037673386	0.9824606778214964	-5.0000010577574	0	0	43.1580128839966	-10.00003099167562	0	56.29085037673386	0.9824606778214964	-5.0000010577574	0	0	31.538995729776	-79.29465087848351	43.37795181612461	-89.97592738577467	-119.9919688579221	89.99723961579248	149.9962558645644	45.00138115859454	0	0	0	-5.887571384370055	0	73.59327426747578	45.00138115859454	0	0
8.93	0.44922010231016	-2.097753073921266	-145.6311583888732	0	0.9399999999999999	0	43.16287541538774	-10.00003024228814	0	56.29187878841889	0.982478626991466	-5.000001014464358	0	0	43.16287541538774	-10.00003024228814	0	56.29187878841889	0.982478626991466	-5.000001014464358	0	0	53.98755595785853	-83.14283596682036	61.52162698730768	-89.94889087429884	-119.9893397035214	89.99725945890904	149.9955264069813	45.00135795108073	0	0	0	-5.890450524295097	0	73.59698504570954	45.00135795108073	0	0
8.94	-0.0662677701156425	-1.40469832990578	-145.5688853968842	0	0.9399999999999999	0	43.34668252510924	-10.00002077938254	0	56.57435419405515	0.9874087528757254	-5.000000566986159	0	0	43.34668252510924	-10.00002077938254	0	56.57435419405515	0.9874087528757254	-5.000000566986159	0	0	84.46001205061066	-86.56615565265722	86.64342399140149	-88.05533344899708	-119.9855121751876	89.9972963851751	149.9941571699581	45.00100868777103	0	0	0	-6.358831632592496	0	73.73734431341919	45.00100868777103	0	0
8.949999999999999	-1.051898400962589	0.1549687230318978	-147.9546498286068	0	0.9399999999999999	0	43.52796315652026	-10.00001475841836	0	56.89464929313206	0.9929989569326189	-5.000000320326933	0	0	43.52796315652026	-10.00001475841836	0	56.89464929313206	0.9929989569326189	-5.000000320326933	0	0	73.50608805582453	-89.96006902721723	67.12813990561506	-79.14041846783441	-119.9897782421876	89.99741200054589	149.988514788044	45.00076098354222	0	0	0	-6.88989583248187	0	73.87579100341836	45.00076098354222	0	0
